# xmcd
#
# Track frame offsets:
#	150
#	14543
#	33302
#	55475
#	71698
#	90131
#	106697
#	124838
#	144536
#	160570
#	175668
#	193098
#
# Disc length: 2786 seconds
#
# Revision: 1
# Processed by: cddbd v1.5.2PL0 Copyright (c) Steve Scherf et al.
# Submitted via: audiograbber 1.83.01
#
DISCID=960ae00c
DTITLE=ARIZONA - Spü´ ma an Country
DYEAR=2015
DGENRE=Country
TTITLE0=Heut´ Nacht geht die Sonn´ auf
TTITLE1=Spü´ ma an Country
TTITLE2=I steh auf Di
TTITLE3=I Got Over It
TTITLE4=Wheels
TTITLE5=De Cowboys von da Steyrermühl
TTITLE6=Fairytales
TTITLE7=1er Country Has´
TTITLE8=The Rockin´ Chair
TTITLE9=Against The Wind
TTITLE10=Da Teufö is in Goisern
TTITLE11=The Rockin´ Chair Bonus Track ohne Schlagzeug
EXTD=
EXTT0=
EXTT1=
EXTT2=
EXTT3=
EXTT4=
EXTT5=
EXTT6=
EXTT7=
EXTT8=
EXTT9=
EXTT10=
EXTT11=
PLAYORDER=
